<mxfile host="app.diagrams.net" modified="2022-05-17T12:55:58.844Z" agent="5.0 (Macintosh; Intel Mac OS X 10_15_7) AppleWebKit/537.36 (KHTML, like Gecko) Chrome/101.0.4951.64 Safari/537.36" etag="YPzk1Bd9ObUKEp4R_I7Q" version="18.0.6" type="github">
  <diagram id="prtHgNgQTEPvFCAcTncT" name="Page-1">
    <mxGraphModel dx="946" dy="614" grid="1" gridSize="10" guides="1" tooltips="1" connect="1" arrows="1" fold="1" page="1" pageScale="1" pageWidth="827" pageHeight="1169" math="0" shadow="0">
      <root>
        <mxCell id="0" />
        <mxCell id="1" parent="0" />
        <mxCell id="dNxyNK7c78bLwvsdeMH5-11" value="docx reader server" style="swimlane;html=1;startSize=20;horizontal=1;containerType=tree;glass=0;" parent="1" vertex="1">
          <mxGeometry x="40" y="80" width="970" height="480" as="geometry">
            <mxRectangle x="40" y="80" width="80" height="20" as="alternateBounds" />
          </mxGeometry>
        </mxCell>
        <UserObject label="%name%&lt;br&gt;&lt;i style=&quot;color: gray&quot;&gt;%desc%&lt;/i&gt;" name="docx zip" placeholders="1" desc="opc规范 zip规范" id="dNxyNK7c78bLwvsdeMH5-12">
          <mxCell style="label;image=data:image/png,iVBORw0KGgoAAAANSUhEUgAAAKQAAACkCAMAAAAua3VzAAAAk1BMVEUAarn///82icgAYbWJqdQAZ7gAXrQAZLcAVrFjnM/5/f/k7/dGf8HG2u3o7vY6eb+Js9oAW7N+otHS5PIATq6WttsAZK0tfLgDWp43abcAVJYASoQAbboxg7+oxOFsk8pajMifwOIWfsS0y+Vvms1flcze5/NlicSz0egvcrzO2evx9frA0ecdgsRWhMOxw+AYYZyqlpkPAAAH80lEQVR4nO2dCZuaOhSGAzEJgygDlGnvlKsiyy3iOP3/v+5mQcWRJVE2W7+nTyci6ss5OSeLMQDtWuYy3a38WT9y43VY8ZmNAldH5qvYIoaDYT8iBG5/3QmZJhkiCPSotx8fuiLlJeQuMfolZJDv/+qKtixDmj6APRMWkLqaLUuQaQb7tuIZ8mN1E2QEyACIR0jqcVMdMkRDmPEMqeLxI2T4bRjEEqS8xwvIaBhXX0DKUwrIFAzk6wtIXZek5JBmNpwhLyC3cpQc0h8gPVZCSkYPg9wN6OyvkFIeZ5DJkIb8CrmN2vMlhZwbQzJ+hdT1SAZyWENeQ7ZnIqDNsyFrZAVkJaV5CRlVMCJyUudXcA3ZGj3AdK+9TWK/0Cw+dN03qoLchs2Q+eGawdidT8i9T4D7hmyxJUgr3sfYX5yzdLtskKoh9SZbgp3TCkmbpA5tWQPZ1EKCqA4yn8WxG+b8LHNztuV1v1OtJ1oD2dRCgiojccilzYafhnDDLuBPEBJktp2V+vAIAn6k4ESn/9QhP2o9DmYVqVxY0uIfhn12Wr5hDxwrXKTLpRe5pMDEtr+nR9KdS2YRFXs3cjiW1CDrs3orJEIpO4/FDpzlx5ftbE7puMviwJ7E7E9KWwaeG8yKpNEGWRvjrZDA4aYMCXA+S6+b24hRnx7vkcO95UPIad3aUGuCrImedkiyZudFhGwEjR9y69GAg2veeC1DemhPayI7nmdoxw1bx9gIWdPbkIDkcBHE3Iu0NhI75f4kgGeqFWtEswO1Kzehz6+pIeCbISvypSkPiQ/MUHt2NnY5DbaYIVODncahCDNDzq6loqmVhazyeDsk5hUvxLGpFVmdHHKOnbAnZufKh6wisBrHni2QVdEjETgiuh3Oyk2EbGbUyOAGTUpA4hwtPzT1UFshr/NlKyTkFlwehI+53YTFCsi4lNjBogtLXufLBkiWZBDmVqPRStaM7BOfuEOHB0p0HnycM1LSQNkOedVCNkAesiw7FA7MaGSkwqIEIva0uYH2nD23wZAeso8R5vIk0NBXloH8Ej31kJq32+2KSGCpWeTy1N2s+bMpFNGs5Z/rTbyniQjzqwC8EnzWd5tkIPWPX5KQJ+WiP4nn4hHP4CatsSKAaJke2iMc8koLA27Kda3DpSAvY7wdMt/ZwizIPnfYlxyicLiotLz5SWm3iGfztHZ4JwlZ9nglpLPXTKF052/Q0SgomwnT5StLHCO2LypEPgMefY0W03ejTRMt1faTJSHLtqyELI8WyyFAD9vJOrbJaWyGCLTWSWJhUryGox8L90Ge82U1ZL0oypfRI1Ic90pDUo+bt0Her7f375KQJ4+PAflbGrIYjw8PCX78lPX3sYUcHjJQMaXw+AiWpKZUoGT5cgzIN0op73E9NMeApJTvP39/l9XHchRI8MYwJfX+lo4DyTFlRbyxIBX0EJDoESDh4gEg8SNAgkdwdzBaCpIXykZK5iqiw70nZCd6QnalJ2RXekJ2JUnIoF2jQ2KjXaepH4HM/11exfV1SV6gFKSRrNpl4+Ib0m83qPnbdBlIeJrbapK55m+DDnN15U0z7FKQxJJbi7kXkP9JnfxF8b2QeCP3QR4ZERJKQi4eCTJXr5Pm3XVSDVIqpyom2R4g0Q0aHLJ7qUBGNGV7vOTR0p4nppSWFlOCTAxsvPJSbGAn4Ly+gb+tpgT5ywEkYfbji9vEd6Ds67zllCDnAUIBI1qwaMTMqMstIro5JchcJwAzJ68YDodLj0ubJgPJ1nk7tAKaMQz0AIGc1gAs3F6CRPgGNecgJciIPnjhCwrs1ww4NKpfMbK9S8jMVdfMbqRUgvRshLb0D0aWZ/NKqRO0MS8gadttKqvTtnuDAJprM0xetIQgXTNp1TxWycl0MF4hgAvNQrRm+g7I8rkjImlSkAsDkDBHwJlrngHQYgVRcOoRTwVSg4C4K4IyWgwQCWeEJOcrEJC2r67Q6i5waKWkgfKCIFuukkASb4q1ISVIgJwb1GEKYuvVgG0jzFIjdTUtIu8rZA9ShPT4azK2/MdjbSOx8ulBzrfUMSRhZHPWy4CuOT1I08UIQdFfo0VCSkt3JgOprSxd10Uvd/VBi94UIc2cyjwXtSlCNuihBmLltVmy6jRPtkOig6euedJli9MIKZb3j9N2Iztv/xSNrY0PxoMMcDKX6LgusjEtyX4osm4XEe9y0yTq/XWS2hJJbBxxOvufG3R3dI+vJ2RXekJ2pSdkV5Jpu2+ZgRp6wip56V93TlihzLthBmrgCSsxfu1bfwWk/QCQIJi99q7w496umiOxtuFe3b9yYHQ9IbvSE7Ir/SmQt0xADT1hdcv80+ATVtlq0bu8zZ1dtUdoux+jF/QYkItbZqDUlN87YRXYVv9qXmI1jTzZ8r3Fn9LijK8nZFdikF3uodWLkLWs3GhrUiLrvHLLskmJuNWbv01KxK/eRm9a2ldvSDgp0T5O9daOExLajLFJpqKMaIztRhWFzTE2blUTZOsKh98CV0liaDD8ZsJKEgs0h9+WWUXENk+Qg25wrSJHrJQafqtwBR1/+jX8puvywscFe8NvXy8tbB8XFQ5/IwBZiX3wLiEHu6WCpIzz3qYj3JxCSgSFpZ8iDn+bDwkhuLmYg7q+YcrYhAAZ2+hy7dnVrWfWfd96phmQEGBdbeVZcxMfp7eb+NQLYwdmib+4IqqA7Pl2SPXyw326rPzl7v94uCBWmMjhQQAAAABJRU5ErkJggg==;whiteSpace=wrap;html=1;rounded=0;glass=0;treeMoving=1;treeFolding=1;" parent="dNxyNK7c78bLwvsdeMH5-11" vertex="1">
            <mxGeometry x="410" y="40" width="170" height="70" as="geometry" />
          </mxCell>
        </UserObject>
        <mxCell id="dNxyNK7c78bLwvsdeMH5-13" value="" style="endArrow=blockThin;endFill=1;fontSize=11;edgeStyle=elbowEdgeStyle;elbow=vertical;rounded=0;exitX=0.5;exitY=1;exitDx=0;exitDy=0;" parent="dNxyNK7c78bLwvsdeMH5-11" source="dNxyNK7c78bLwvsdeMH5-12" target="dNxyNK7c78bLwvsdeMH5-14" edge="1">
          <mxGeometry relative="1" as="geometry">
            <Array as="points">
              <mxPoint x="360" y="140" />
            </Array>
          </mxGeometry>
        </mxCell>
        <UserObject label="%name%&lt;br&gt;&lt;i style=&quot;color: gray&quot;&gt;%desc%&lt;/i&gt;&lt;br&gt;" name="_rels" placeholders="1" desc="顶层的依赖" id="dNxyNK7c78bLwvsdeMH5-14">
          <mxCell style="label;image=data:image/png,iVBORw0KGgoAAAANSUhEUgAAAOEAAADhCAMAAAAJbSJIAAAAgVBMVEX///8AAAASEhL39/e+vr6CgoJwcHCpqamamppcXFzMzMxRUVHZ2dnf39/r6+v09PTl5eVra2vHx8dLS0uioqK4uLjp6elmZmZ3d3coKCja2to7OztGRkaHh4dAQEDR0dE0NDQkJCSPj48dHR2wsLAvLy8LCwt8fHylpaUXFxdfX18fTi+dAAAMNUlEQVR4nO1da2PyKgy21st0ap3O6abzrnu3//8Dz1RCaRtouLW44/NRoc1TIIQkQKPxwAMPkDE5dvUxG9UtNhXDRWSI5axu2Ul4MuV35TiuW/xydGwI/mJTN4EyfFkSjKLAW7FlTTBa1c1BjZ09w6hVNwkVJrwhnrTB+3fQjQhSToxqP7PaiWOpXGJ7E3FvVjux+j7V4Psmoqk6fAl/IDZvIsaG1dsPhvXjwbAED4YB4O8z/P7LDN+O8+0u+rsM+2Bx/VGGSW7Ze18M4/GgP2kJKBYZ7qL7ZJhMXjvLqIBCuXGhyB0wjD+eXorccIZJ8+4YjmYv7zJ6CMN5sUjYDGc9BTuEIV/WR4vWKLnB9N0VMBy2S+gVGU7Zz6s3+9d7Zzh5ltKSMhyyX6cuBPDM8IjozStO03ln0W5D82ZrgYfbQQt6ZthClMuu89oapkVQhqzZ206E8MhwsMqzW+0n+VAQypD96MYX741hkg8WvcywTqdiaDo/ZOGL4Sw7Za+OEm2vYuhGEj8Mk+z8t5B7AlUMh3gVTXhhOBHpHfaqyRplyBTwqxNhfDD8FAk+qY0RlCF7wM6JNO4ZxuIU3y4ztlCG0AecTBfOGQ7PKb9puSceVyoH9vOnA4FcMxSHYJdQHmf4Dx6xmljHjBwzPKb8nkl5HjjD+MQf872aXrENY/XUFTQMrQbOsLGJCgiC4Wv65akWl4Sh+K0CYphKtSZnIskYpkOxlOFosNls5DrNIcMZF2ZOryRlmDUbpAyT19XNPjx1+vgb3DFMJdKZxuQMuWwKhnHGuNiiQ8MZwyF/kVbAXcWwMer2DvyxCMP+d66dsW/rimHMJ3qiEv2Vv9X+AQtdWigZj6Sxp1lUwHPxCa4YclON2oKDH1EyVUkZQzRVqkjREUM+HohjMM75hlVlJQyHEYqCAG4Yci1D1KIfu5xcqsIShqmP5NCbr9NH5dWNE4aQlROtaeUHhS+vKo0z5H10Obn888Z70TZX3QlD0BffNDN5VOxbquI4w22+V/LPlpsXXTDk5jbRVCv44AwYwih8SX8CiotsdQcMeZyIOE+k64+X4+DjBlV5lCFYiGKvYR31lK2+sGcIbkOqDx7615LoaUIZdnJ99II39uCsjbq7/WiRuccXOkRrG/QuMjnjQBlOMbmZRh2Iv+1R2loARX0klmfpok3y4p0xHAwFvC0xuZkRMRvzchOYdw86lLIArU1ukrXWoG1whiiyDJG4KoD+ugLe0XfJAXMn3d3rhKF5hAAUI3nFlGj3GhcMLfQMxAfJo4oxfKe/wgFDC+85KEZ6N2cM6YrGAUOqEsTAFk0HurwxW7VKfA4IFARJDH9sNsx8aDchN2LpvpxnOdbZkOTntFBi3rXbEASeFB3HNATpA0ylQ8CE1Yqg8HyukHdAAMBRotcR+PL+y0muhVewIaWZ9iIk5a07iys6fuSzBqxkdZVx6vzn8CKfPaCTagfAiimKPsRzACboi7JQMvpF3iosUJRWjy/V69p3FjOjW7FXevzUu07w204rSzK/cxmvnhzn13ccev9q2XQOfhGpRnwTm+qQtQ1zCVNo/b0QMI8WNTTkU4kmzSuUU3bBtFmkMQmM4eacq1+9icBaSObGR44IyM/xwz5Y7sXqx2J1wz2W5pCIzYCegVA0t2UMkahL5RRhNsRXz8ic94tzQWFIGBa94ldU21GZgwZfrAt2y2GbJlYUvTkShlte47zdCgvEStUNayXc4OLBtnk/uWxf4iTzfRpnyDMCtq3fVh9NeCKgm6RaIphPFnUQ8MgXdKsYFqf52A3OENxbPCeKd/oq58WlYmh8RoU/oVVz6xCUYb/YYkCRkmflCrjENzD2oj2X4CKiDJmf+lv8jX0hjTQPW8R4/7oCAgiZgEu7yLohYbhGBgBTbDs3qdEUjBUM2TDMpqIxEXMHVKBPwT4QTE7VaVM2Y51iBCxY08tUYJ9k2RBLQt/N/IjT3t1+fMNe6IVhPmUJQZYhEvktQfaFqo1hyvjjn2DoJuc9B8LBPw+GD4b/N4a7mhiev5syRD85hkgZSC7EnpJjeDrLq3thyHSprRWFNhcdzPrxchwbY2i7zdOOYfLukSHYNJaPsWPIck+LrgMXUNmlGrB7ChPi3YuxqlpbaMDuKczEJ6ZE6iJyMgTsGDKFTs7l0YNqjU+HHUPmlPYUnFP5aeiwY/jlRAYZlL42MuwYovl7zsDGgEbqDwYrhqDtBuVFTaD2eVNhxZAlu5ytJFCACUdP/VE8xKxy1+tkwbM5LfIaG5YMmbJzsZcWRVn8kAQrhpGTCUsOSPkyzYqZfKbxF6MHQP61NxdqcrD5hK+7SIDRI1gnWhpVJmFuPiN+nKLImiGzqjzGTY3zaYohbJPXwyjxNBteADOidjctxuhNXs/iNyefkQxmNOma9shWdJO3Mz3lNWgKbaG5xM7vbTVjCE53v7cCRCZjHXaxRId/Nj4yZnB41KQXwPGUOkMhgSa0617gRbEzqUoBI0pngQYa2NLWgnwd34H9lb4+Y+2+tXsx6HF1YqQDQIP8I9eAY0ssb3+B6wS8RA5FQAZmk9yIEPW1y/GGdBZPPigRkNtDHvCMoeUZUKDi7BanNIBmpI54Jwz71TVhOuv/lBe9ItH8IigglljNHUCwSiBapzBybZatT5pf1RJgPRE348Oay8I1wLPmqkpyg6Q8YigRurX5sm5p/QRN8FxS2s6S0dlSQEgLfK8uAYynRtIMaX6CxQo977MMPIGgyp1hsGGdZryBp/oCPGSvAk94WJSXdQfIRSTOT0g6FflVENeODtX10Qu4W+KLVLyY5k5+E8+H9uidQcH3HtCstwJF6ns6eu9xCe7cpS0V+2YM+YesMFUYkGY80TKx431TnyHXwstqB+ENaasQF/zJrHPSY5ieUFfP9ampE5Q+RtIcYQLSO0vqunQzPRhSY6oiMxQO761vEzh3E0Y98jihMnxLzyur8/bblOKJmmZDZChsRrQ55MIewuZXYleiMRQCHXXfXyxM5TR9Q2IoHPNZ/1kTws5Ikr4hMIyFI+xDuLpYCCytCKv+cobjHX/gIYyLi0dbnU9eylDIJ3+uw5JBIRyEU6oXyhgKuqvS3ZUlSGeN0vhLCUPh7rUqdx6WQ+xa6pJKhiPhHp4QdIyIYXqawE6pHlQMBaW1rMfWViER7oBQTf4KhsI07z2GZgThyAHF5C9n2CbVrxXCufHypCIZw3ia1q7fjpGhny7jpVEwGcN0KbbzsuXHEcZ88pdqQhlDPgh7IV/73kidf8YMae7JOtGzYxg+QTjExpRhqFpUwIPhg6FX4ZzgwfDB0KtwTsAYSqN9988Qckt6EjCGP7mff5iLu/Ij2nSxQS560EMvZLs7TZG0Qsgd9adcfApC8rFlgZ4raAJPm2CtkQ/VWyAMV3cBshu5DRDmQcr8bMf9ZmCGjz7XVEGu8yHOZpXZA5GsIA83Lzm/lQhmEQQ5Y7CpwjLVvOvkO/kB3Gpj95R9wAzZbNgrL6kCy0QMckYEJfFlEdYcgVVUdSIiCTzRrTnvGIJbfbYHGXmCM6Mt0E4qXIpojW3dVGQgnB1JQ6BmaUNy6rg+Qotvi/hQnXVIBO2K9vowm5ZzUKFXxfY7O/CNCotJn4wWZOQ06xafAIjlaq4OoFr4TQizonYckDnpAp0JRbwYNSFfXga5bMqCMdReYuzvhiFzRGgvMXa3evRd8LXB7AQFfpWC9+329uD7Kb8XbTJ4RuK2bvEpsPLs30EntVtibOsWngYL33e4i4osjJcYIS8qsthsy9kU8XwvLXjFUZvjKkg3twKsp64nrRKAY+AOJsIs2Olx5bfEwPEFwWytoGJEveeYLZu2/kVyDZbYXhoJZDkY3o4k9QdI+i7xusDkeQcr3zzABV7SiKypKzzUwx1K86EvsD/ZpUZA1Ft1DTs/ByZwD6IEsIlGvhhOwC4IN4NGCX72kezEh5iniN3jKLyA79mboh11zB3kdW9mNgdvozOyzyfdxxVm9gwJwn1IvVxUd5J6/9f32kcvEG+InXb5IVHDV3HpcZ96FJA7Qfj5a7//yqagNu+b4G8rHiIl1nZHYoaARBlu69zzGOTAb3u+4n6niSxGHZzf559owBuGn808vff9vauYHOJWW7g74PS5+UPtlyLezI7d7nF2d06nBx6oGv8B3TyOQ3C8ebIAAAAASUVORK5CYII=;whiteSpace=wrap;html=1;rounded=0;glass=0;treeFolding=1;treeMoving=1;" parent="dNxyNK7c78bLwvsdeMH5-11" vertex="1">
            <mxGeometry x="20" y="180" width="160" height="70" as="geometry" />
          </mxCell>
        </UserObject>
        <UserObject label="%name%&lt;br&gt;&lt;i style=&quot;color: gray&quot;&gt;%desc%&lt;/i&gt;&lt;br&gt;" name="docProps" placeholders="1" desc="文档有几行几段；字符数；创作者；版本号；公司；最后修改人等" id="RVc95KBzgzuvrnmMI-FG-21">
          <mxCell style="label;image=data:image/png,iVBORw0KGgoAAAANSUhEUgAAAOEAAADhCAMAAAAJbSJIAAAAgVBMVEX///8AAAASEhL39/e+vr6CgoJwcHCpqamamppcXFzMzMxRUVHZ2dnf39/r6+v09PTl5eVra2vHx8dLS0uioqK4uLjp6elmZmZ3d3coKCja2to7OztGRkaHh4dAQEDR0dE0NDQkJCSPj48dHR2wsLAvLy8LCwt8fHylpaUXFxdfX18fTi+dAAAMNUlEQVR4nO1da2PyKgy21st0ap3O6abzrnu3//8Dz1RCaRtouLW44/NRoc1TIIQkQKPxwAMPkDE5dvUxG9UtNhXDRWSI5axu2Ul4MuV35TiuW/xydGwI/mJTN4EyfFkSjKLAW7FlTTBa1c1BjZ09w6hVNwkVJrwhnrTB+3fQjQhSToxqP7PaiWOpXGJ7E3FvVjux+j7V4Psmoqk6fAl/IDZvIsaG1dsPhvXjwbAED4YB4O8z/P7LDN+O8+0u+rsM+2Bx/VGGSW7Ze18M4/GgP2kJKBYZ7qL7ZJhMXjvLqIBCuXGhyB0wjD+eXorccIZJ8+4YjmYv7zJ6CMN5sUjYDGc9BTuEIV/WR4vWKLnB9N0VMBy2S+gVGU7Zz6s3+9d7Zzh5ltKSMhyyX6cuBPDM8IjozStO03ln0W5D82ZrgYfbQQt6ZthClMuu89oapkVQhqzZ206E8MhwsMqzW+0n+VAQypD96MYX741hkg8WvcywTqdiaDo/ZOGL4Sw7Za+OEm2vYuhGEj8Mk+z8t5B7AlUMh3gVTXhhOBHpHfaqyRplyBTwqxNhfDD8FAk+qY0RlCF7wM6JNO4ZxuIU3y4ztlCG0AecTBfOGQ7PKb9puSceVyoH9vOnA4FcMxSHYJdQHmf4Dx6xmljHjBwzPKb8nkl5HjjD+MQf872aXrENY/XUFTQMrQbOsLGJCgiC4Wv65akWl4Sh+K0CYphKtSZnIskYpkOxlOFosNls5DrNIcMZF2ZOryRlmDUbpAyT19XNPjx1+vgb3DFMJdKZxuQMuWwKhnHGuNiiQ8MZwyF/kVbAXcWwMer2DvyxCMP+d66dsW/rimHMJ3qiEv2Vv9X+AQtdWigZj6Sxp1lUwHPxCa4YclON2oKDH1EyVUkZQzRVqkjREUM+HohjMM75hlVlJQyHEYqCAG4Yci1D1KIfu5xcqsIShqmP5NCbr9NH5dWNE4aQlROtaeUHhS+vKo0z5H10Obn888Z70TZX3QlD0BffNDN5VOxbquI4w22+V/LPlpsXXTDk5jbRVCv44AwYwih8SX8CiotsdQcMeZyIOE+k64+X4+DjBlV5lCFYiGKvYR31lK2+sGcIbkOqDx7615LoaUIZdnJ99II39uCsjbq7/WiRuccXOkRrG/QuMjnjQBlOMbmZRh2Iv+1R2loARX0klmfpok3y4p0xHAwFvC0xuZkRMRvzchOYdw86lLIArU1ukrXWoG1whiiyDJG4KoD+ugLe0XfJAXMn3d3rhKF5hAAUI3nFlGj3GhcMLfQMxAfJo4oxfKe/wgFDC+85KEZ6N2cM6YrGAUOqEsTAFk0HurwxW7VKfA4IFARJDH9sNsx8aDchN2LpvpxnOdbZkOTntFBi3rXbEASeFB3HNATpA0ylQ8CE1Yqg8HyukHdAAMBRotcR+PL+y0muhVewIaWZ9iIk5a07iys6fuSzBqxkdZVx6vzn8CKfPaCTagfAiimKPsRzACboi7JQMvpF3iosUJRWjy/V69p3FjOjW7FXevzUu07w204rSzK/cxmvnhzn13ccev9q2XQOfhGpRnwTm+qQtQ1zCVNo/b0QMI8WNTTkU4kmzSuUU3bBtFmkMQmM4eacq1+9icBaSObGR44IyM/xwz5Y7sXqx2J1wz2W5pCIzYCegVA0t2UMkahL5RRhNsRXz8ic94tzQWFIGBa94ldU21GZgwZfrAt2y2GbJlYUvTkShlte47zdCgvEStUNayXc4OLBtnk/uWxf4iTzfRpnyDMCtq3fVh9NeCKgm6RaIphPFnUQ8MgXdKsYFqf52A3OENxbPCeKd/oq58WlYmh8RoU/oVVz6xCUYb/YYkCRkmflCrjENzD2oj2X4CKiDJmf+lv8jX0hjTQPW8R4/7oCAgiZgEu7yLohYbhGBgBTbDs3qdEUjBUM2TDMpqIxEXMHVKBPwT4QTE7VaVM2Y51iBCxY08tUYJ9k2RBLQt/N/IjT3t1+fMNe6IVhPmUJQZYhEvktQfaFqo1hyvjjn2DoJuc9B8LBPw+GD4b/N4a7mhiev5syRD85hkgZSC7EnpJjeDrLq3thyHSprRWFNhcdzPrxchwbY2i7zdOOYfLukSHYNJaPsWPIck+LrgMXUNmlGrB7ChPi3YuxqlpbaMDuKczEJ6ZE6iJyMgTsGDKFTs7l0YNqjU+HHUPmlPYUnFP5aeiwY/jlRAYZlL42MuwYovl7zsDGgEbqDwYrhqDtBuVFTaD2eVNhxZAlu5ytJFCACUdP/VE8xKxy1+tkwbM5LfIaG5YMmbJzsZcWRVn8kAQrhpGTCUsOSPkyzYqZfKbxF6MHQP61NxdqcrD5hK+7SIDRI1gnWhpVJmFuPiN+nKLImiGzqjzGTY3zaYohbJPXwyjxNBteADOidjctxuhNXs/iNyefkQxmNOma9shWdJO3Mz3lNWgKbaG5xM7vbTVjCE53v7cCRCZjHXaxRId/Nj4yZnB41KQXwPGUOkMhgSa0617gRbEzqUoBI0pngQYa2NLWgnwd34H9lb4+Y+2+tXsx6HF1YqQDQIP8I9eAY0ssb3+B6wS8RA5FQAZmk9yIEPW1y/GGdBZPPigRkNtDHvCMoeUZUKDi7BanNIBmpI54Jwz71TVhOuv/lBe9ItH8IigglljNHUCwSiBapzBybZatT5pf1RJgPRE348Oay8I1wLPmqkpyg6Q8YigRurX5sm5p/QRN8FxS2s6S0dlSQEgLfK8uAYynRtIMaX6CxQo977MMPIGgyp1hsGGdZryBp/oCPGSvAk94WJSXdQfIRSTOT0g6FflVENeODtX10Qu4W+KLVLyY5k5+E8+H9uidQcH3HtCstwJF6ns6eu9xCe7cpS0V+2YM+YesMFUYkGY80TKx431TnyHXwstqB+ENaasQF/zJrHPSY5ieUFfP9ampE5Q+RtIcYQLSO0vqunQzPRhSY6oiMxQO761vEzh3E0Y98jihMnxLzyur8/bblOKJmmZDZChsRrQ55MIewuZXYleiMRQCHXXfXyxM5TR9Q2IoHPNZ/1kTws5Ikr4hMIyFI+xDuLpYCCytCKv+cobjHX/gIYyLi0dbnU9eylDIJ3+uw5JBIRyEU6oXyhgKuqvS3ZUlSGeN0vhLCUPh7rUqdx6WQ+xa6pJKhiPhHp4QdIyIYXqawE6pHlQMBaW1rMfWViER7oBQTf4KhsI07z2GZgThyAHF5C9n2CbVrxXCufHypCIZw3ia1q7fjpGhny7jpVEwGcN0KbbzsuXHEcZ88pdqQhlDPgh7IV/73kidf8YMae7JOtGzYxg+QTjExpRhqFpUwIPhg6FX4ZzgwfDB0KtwTsAYSqN9988Qckt6EjCGP7mff5iLu/Ij2nSxQS560EMvZLs7TZG0Qsgd9adcfApC8rFlgZ4raAJPm2CtkQ/VWyAMV3cBshu5DRDmQcr8bMf9ZmCGjz7XVEGu8yHOZpXZA5GsIA83Lzm/lQhmEQQ5Y7CpwjLVvOvkO/kB3Gpj95R9wAzZbNgrL6kCy0QMckYEJfFlEdYcgVVUdSIiCTzRrTnvGIJbfbYHGXmCM6Mt0E4qXIpojW3dVGQgnB1JQ6BmaUNy6rg+Qotvi/hQnXVIBO2K9vowm5ZzUKFXxfY7O/CNCotJn4wWZOQ06xafAIjlaq4OoFr4TQizonYckDnpAp0JRbwYNSFfXga5bMqCMdReYuzvhiFzRGgvMXa3evRd8LXB7AQFfpWC9+329uD7Kb8XbTJ4RuK2bvEpsPLs30EntVtibOsWngYL33e4i4osjJcYIS8qsthsy9kU8XwvLXjFUZvjKkg3twKsp64nrRKAY+AOJsIs2Olx5bfEwPEFwWytoGJEveeYLZu2/kVyDZbYXhoJZDkY3o4k9QdI+i7xusDkeQcr3zzABV7SiKypKzzUwx1K86EvsD/ZpUZA1Ft1DTs/ByZwD6IEsIlGvhhOwC4IN4NGCX72kezEh5iniN3jKLyA79mboh11zB3kdW9mNgdvozOyzyfdxxVm9gwJwn1IvVxUd5J6/9f32kcvEG+InXb5IVHDV3HpcZ96FJA7Qfj5a7//yqagNu+b4G8rHiIl1nZHYoaARBlu69zzGOTAb3u+4n6niSxGHZzf559owBuGn808vff9vauYHOJWW7g74PS5+UPtlyLezI7d7nF2d06nBx6oGv8B3TyOQ3C8ebIAAAAASUVORK5CYII=;whiteSpace=wrap;html=1;rounded=0;glass=0;treeFolding=1;treeMoving=1;" vertex="1" parent="dNxyNK7c78bLwvsdeMH5-11">
            <mxGeometry x="270" y="180" width="190" height="70" as="geometry" />
          </mxCell>
        </UserObject>
        <UserObject label="%name%&lt;br&gt;&lt;i style=&quot;color: gray&quot;&gt;%desc%&lt;/i&gt;&lt;br&gt;" name="word" placeholders="1" desc="word文档里的具体内容" id="RVc95KBzgzuvrnmMI-FG-22">
          <mxCell style="label;image=data:image/png,iVBORw0KGgoAAAANSUhEUgAAAOEAAADhCAMAAAAJbSJIAAAAgVBMVEX///8AAAASEhL39/e+vr6CgoJwcHCpqamamppcXFzMzMxRUVHZ2dnf39/r6+v09PTl5eVra2vHx8dLS0uioqK4uLjp6elmZmZ3d3coKCja2to7OztGRkaHh4dAQEDR0dE0NDQkJCSPj48dHR2wsLAvLy8LCwt8fHylpaUXFxdfX18fTi+dAAAMNUlEQVR4nO1da2PyKgy21st0ap3O6abzrnu3//8Dz1RCaRtouLW44/NRoc1TIIQkQKPxwAMPkDE5dvUxG9UtNhXDRWSI5axu2Ul4MuV35TiuW/xydGwI/mJTN4EyfFkSjKLAW7FlTTBa1c1BjZ09w6hVNwkVJrwhnrTB+3fQjQhSToxqP7PaiWOpXGJ7E3FvVjux+j7V4Psmoqk6fAl/IDZvIsaG1dsPhvXjwbAED4YB4O8z/P7LDN+O8+0u+rsM+2Bx/VGGSW7Ze18M4/GgP2kJKBYZ7qL7ZJhMXjvLqIBCuXGhyB0wjD+eXorccIZJ8+4YjmYv7zJ6CMN5sUjYDGc9BTuEIV/WR4vWKLnB9N0VMBy2S+gVGU7Zz6s3+9d7Zzh5ltKSMhyyX6cuBPDM8IjozStO03ln0W5D82ZrgYfbQQt6ZthClMuu89oapkVQhqzZ206E8MhwsMqzW+0n+VAQypD96MYX741hkg8WvcywTqdiaDo/ZOGL4Sw7Za+OEm2vYuhGEj8Mk+z8t5B7AlUMh3gVTXhhOBHpHfaqyRplyBTwqxNhfDD8FAk+qY0RlCF7wM6JNO4ZxuIU3y4ztlCG0AecTBfOGQ7PKb9puSceVyoH9vOnA4FcMxSHYJdQHmf4Dx6xmljHjBwzPKb8nkl5HjjD+MQf872aXrENY/XUFTQMrQbOsLGJCgiC4Wv65akWl4Sh+K0CYphKtSZnIskYpkOxlOFosNls5DrNIcMZF2ZOryRlmDUbpAyT19XNPjx1+vgb3DFMJdKZxuQMuWwKhnHGuNiiQ8MZwyF/kVbAXcWwMer2DvyxCMP+d66dsW/rimHMJ3qiEv2Vv9X+AQtdWigZj6Sxp1lUwHPxCa4YclON2oKDH1EyVUkZQzRVqkjREUM+HohjMM75hlVlJQyHEYqCAG4Yci1D1KIfu5xcqsIShqmP5NCbr9NH5dWNE4aQlROtaeUHhS+vKo0z5H10Obn888Z70TZX3QlD0BffNDN5VOxbquI4w22+V/LPlpsXXTDk5jbRVCv44AwYwih8SX8CiotsdQcMeZyIOE+k64+X4+DjBlV5lCFYiGKvYR31lK2+sGcIbkOqDx7615LoaUIZdnJ99II39uCsjbq7/WiRuccXOkRrG/QuMjnjQBlOMbmZRh2Iv+1R2loARX0klmfpok3y4p0xHAwFvC0xuZkRMRvzchOYdw86lLIArU1ukrXWoG1whiiyDJG4KoD+ugLe0XfJAXMn3d3rhKF5hAAUI3nFlGj3GhcMLfQMxAfJo4oxfKe/wgFDC+85KEZ6N2cM6YrGAUOqEsTAFk0HurwxW7VKfA4IFARJDH9sNsx8aDchN2LpvpxnOdbZkOTntFBi3rXbEASeFB3HNATpA0ylQ8CE1Yqg8HyukHdAAMBRotcR+PL+y0muhVewIaWZ9iIk5a07iys6fuSzBqxkdZVx6vzn8CKfPaCTagfAiimKPsRzACboi7JQMvpF3iosUJRWjy/V69p3FjOjW7FXevzUu07w204rSzK/cxmvnhzn13ccev9q2XQOfhGpRnwTm+qQtQ1zCVNo/b0QMI8WNTTkU4kmzSuUU3bBtFmkMQmM4eacq1+9icBaSObGR44IyM/xwz5Y7sXqx2J1wz2W5pCIzYCegVA0t2UMkahL5RRhNsRXz8ic94tzQWFIGBa94ldU21GZgwZfrAt2y2GbJlYUvTkShlte47zdCgvEStUNayXc4OLBtnk/uWxf4iTzfRpnyDMCtq3fVh9NeCKgm6RaIphPFnUQ8MgXdKsYFqf52A3OENxbPCeKd/oq58WlYmh8RoU/oVVz6xCUYb/YYkCRkmflCrjENzD2oj2X4CKiDJmf+lv8jX0hjTQPW8R4/7oCAgiZgEu7yLohYbhGBgBTbDs3qdEUjBUM2TDMpqIxEXMHVKBPwT4QTE7VaVM2Y51iBCxY08tUYJ9k2RBLQt/N/IjT3t1+fMNe6IVhPmUJQZYhEvktQfaFqo1hyvjjn2DoJuc9B8LBPw+GD4b/N4a7mhiev5syRD85hkgZSC7EnpJjeDrLq3thyHSprRWFNhcdzPrxchwbY2i7zdOOYfLukSHYNJaPsWPIck+LrgMXUNmlGrB7ChPi3YuxqlpbaMDuKczEJ6ZE6iJyMgTsGDKFTs7l0YNqjU+HHUPmlPYUnFP5aeiwY/jlRAYZlL42MuwYovl7zsDGgEbqDwYrhqDtBuVFTaD2eVNhxZAlu5ytJFCACUdP/VE8xKxy1+tkwbM5LfIaG5YMmbJzsZcWRVn8kAQrhpGTCUsOSPkyzYqZfKbxF6MHQP61NxdqcrD5hK+7SIDRI1gnWhpVJmFuPiN+nKLImiGzqjzGTY3zaYohbJPXwyjxNBteADOidjctxuhNXs/iNyefkQxmNOma9shWdJO3Mz3lNWgKbaG5xM7vbTVjCE53v7cCRCZjHXaxRId/Nj4yZnB41KQXwPGUOkMhgSa0617gRbEzqUoBI0pngQYa2NLWgnwd34H9lb4+Y+2+tXsx6HF1YqQDQIP8I9eAY0ssb3+B6wS8RA5FQAZmk9yIEPW1y/GGdBZPPigRkNtDHvCMoeUZUKDi7BanNIBmpI54Jwz71TVhOuv/lBe9ItH8IigglljNHUCwSiBapzBybZatT5pf1RJgPRE348Oay8I1wLPmqkpyg6Q8YigRurX5sm5p/QRN8FxS2s6S0dlSQEgLfK8uAYynRtIMaX6CxQo977MMPIGgyp1hsGGdZryBp/oCPGSvAk94WJSXdQfIRSTOT0g6FflVENeODtX10Qu4W+KLVLyY5k5+E8+H9uidQcH3HtCstwJF6ns6eu9xCe7cpS0V+2YM+YesMFUYkGY80TKx431TnyHXwstqB+ENaasQF/zJrHPSY5ieUFfP9ampE5Q+RtIcYQLSO0vqunQzPRhSY6oiMxQO761vEzh3E0Y98jihMnxLzyur8/bblOKJmmZDZChsRrQ55MIewuZXYleiMRQCHXXfXyxM5TR9Q2IoHPNZ/1kTws5Ikr4hMIyFI+xDuLpYCCytCKv+cobjHX/gIYyLi0dbnU9eylDIJ3+uw5JBIRyEU6oXyhgKuqvS3ZUlSGeN0vhLCUPh7rUqdx6WQ+xa6pJKhiPhHp4QdIyIYXqawE6pHlQMBaW1rMfWViER7oBQTf4KhsI07z2GZgThyAHF5C9n2CbVrxXCufHypCIZw3ia1q7fjpGhny7jpVEwGcN0KbbzsuXHEcZ88pdqQhlDPgh7IV/73kidf8YMae7JOtGzYxg+QTjExpRhqFpUwIPhg6FX4ZzgwfDB0KtwTsAYSqN9988Qckt6EjCGP7mff5iLu/Ij2nSxQS560EMvZLs7TZG0Qsgd9adcfApC8rFlgZ4raAJPm2CtkQ/VWyAMV3cBshu5DRDmQcr8bMf9ZmCGjz7XVEGu8yHOZpXZA5GsIA83Lzm/lQhmEQQ5Y7CpwjLVvOvkO/kB3Gpj95R9wAzZbNgrL6kCy0QMckYEJfFlEdYcgVVUdSIiCTzRrTnvGIJbfbYHGXmCM6Mt0E4qXIpojW3dVGQgnB1JQ6BmaUNy6rg+Qotvi/hQnXVIBO2K9vowm5ZzUKFXxfY7O/CNCotJn4wWZOQ06xafAIjlaq4OoFr4TQizonYckDnpAp0JRbwYNSFfXga5bMqCMdReYuzvhiFzRGgvMXa3evRd8LXB7AQFfpWC9+329uD7Kb8XbTJ4RuK2bvEpsPLs30EntVtibOsWngYL33e4i4osjJcYIS8qsthsy9kU8XwvLXjFUZvjKkg3twKsp64nrRKAY+AOJsIs2Olx5bfEwPEFwWytoGJEveeYLZu2/kVyDZbYXhoJZDkY3o4k9QdI+i7xusDkeQcr3zzABV7SiKypKzzUwx1K86EvsD/ZpUZA1Ft1DTs/ByZwD6IEsIlGvhhOwC4IN4NGCX72kezEh5iniN3jKLyA79mboh11zB3kdW9mNgdvozOyzyfdxxVm9gwJwn1IvVxUd5J6/9f32kcvEG+InXb5IVHDV3HpcZ96FJA7Qfj5a7//yqagNu+b4G8rHiIl1nZHYoaARBlu69zzGOTAb3u+4n6niSxGHZzf559owBuGn808vff9vauYHOJWW7g74PS5+UPtlyLezI7d7nF2d06nBx6oGv8B3TyOQ3C8ebIAAAAASUVORK5CYII=;whiteSpace=wrap;html=1;rounded=0;glass=0;treeFolding=1;treeMoving=1;" vertex="1" parent="dNxyNK7c78bLwvsdeMH5-11">
            <mxGeometry x="520" y="180" width="160" height="70" as="geometry" />
          </mxCell>
        </UserObject>
        <UserObject label="%name%&lt;br&gt;&lt;i style=&quot;color: gray&quot;&gt;%desc%&lt;/i&gt;&lt;br&gt;" name="[Content_Types].xml" placeholders="1" desc="文档文件类型" id="RVc95KBzgzuvrnmMI-FG-23">
          <mxCell style="label;image=data:image/png,iVBORw0KGgoAAAANSUhEUgAAAOEAAADhCAMAAAAJbSJIAAAAgVBMVEX///8AAAASEhL39/e+vr6CgoJwcHCpqamamppcXFzMzMxRUVHZ2dnf39/r6+v09PTl5eVra2vHx8dLS0uioqK4uLjp6elmZmZ3d3coKCja2to7OztGRkaHh4dAQEDR0dE0NDQkJCSPj48dHR2wsLAvLy8LCwt8fHylpaUXFxdfX18fTi+dAAAMNUlEQVR4nO1da2PyKgy21st0ap3O6abzrnu3//8Dz1RCaRtouLW44/NRoc1TIIQkQKPxwAMPkDE5dvUxG9UtNhXDRWSI5axu2Ul4MuV35TiuW/xydGwI/mJTN4EyfFkSjKLAW7FlTTBa1c1BjZ09w6hVNwkVJrwhnrTB+3fQjQhSToxqP7PaiWOpXGJ7E3FvVjux+j7V4Psmoqk6fAl/IDZvIsaG1dsPhvXjwbAED4YB4O8z/P7LDN+O8+0u+rsM+2Bx/VGGSW7Ze18M4/GgP2kJKBYZ7qL7ZJhMXjvLqIBCuXGhyB0wjD+eXorccIZJ8+4YjmYv7zJ6CMN5sUjYDGc9BTuEIV/WR4vWKLnB9N0VMBy2S+gVGU7Zz6s3+9d7Zzh5ltKSMhyyX6cuBPDM8IjozStO03ln0W5D82ZrgYfbQQt6ZthClMuu89oapkVQhqzZ206E8MhwsMqzW+0n+VAQypD96MYX741hkg8WvcywTqdiaDo/ZOGL4Sw7Za+OEm2vYuhGEj8Mk+z8t5B7AlUMh3gVTXhhOBHpHfaqyRplyBTwqxNhfDD8FAk+qY0RlCF7wM6JNO4ZxuIU3y4ztlCG0AecTBfOGQ7PKb9puSceVyoH9vOnA4FcMxSHYJdQHmf4Dx6xmljHjBwzPKb8nkl5HjjD+MQf872aXrENY/XUFTQMrQbOsLGJCgiC4Wv65akWl4Sh+K0CYphKtSZnIskYpkOxlOFosNls5DrNIcMZF2ZOryRlmDUbpAyT19XNPjx1+vgb3DFMJdKZxuQMuWwKhnHGuNiiQ8MZwyF/kVbAXcWwMer2DvyxCMP+d66dsW/rimHMJ3qiEv2Vv9X+AQtdWigZj6Sxp1lUwHPxCa4YclON2oKDH1EyVUkZQzRVqkjREUM+HohjMM75hlVlJQyHEYqCAG4Yci1D1KIfu5xcqsIShqmP5NCbr9NH5dWNE4aQlROtaeUHhS+vKo0z5H10Obn888Z70TZX3QlD0BffNDN5VOxbquI4w22+V/LPlpsXXTDk5jbRVCv44AwYwih8SX8CiotsdQcMeZyIOE+k64+X4+DjBlV5lCFYiGKvYR31lK2+sGcIbkOqDx7615LoaUIZdnJ99II39uCsjbq7/WiRuccXOkRrG/QuMjnjQBlOMbmZRh2Iv+1R2loARX0klmfpok3y4p0xHAwFvC0xuZkRMRvzchOYdw86lLIArU1ukrXWoG1whiiyDJG4KoD+ugLe0XfJAXMn3d3rhKF5hAAUI3nFlGj3GhcMLfQMxAfJo4oxfKe/wgFDC+85KEZ6N2cM6YrGAUOqEsTAFk0HurwxW7VKfA4IFARJDH9sNsx8aDchN2LpvpxnOdbZkOTntFBi3rXbEASeFB3HNATpA0ylQ8CE1Yqg8HyukHdAAMBRotcR+PL+y0muhVewIaWZ9iIk5a07iys6fuSzBqxkdZVx6vzn8CKfPaCTagfAiimKPsRzACboi7JQMvpF3iosUJRWjy/V69p3FjOjW7FXevzUu07w204rSzK/cxmvnhzn13ccev9q2XQOfhGpRnwTm+qQtQ1zCVNo/b0QMI8WNTTkU4kmzSuUU3bBtFmkMQmM4eacq1+9icBaSObGR44IyM/xwz5Y7sXqx2J1wz2W5pCIzYCegVA0t2UMkahL5RRhNsRXz8ic94tzQWFIGBa94ldU21GZgwZfrAt2y2GbJlYUvTkShlte47zdCgvEStUNayXc4OLBtnk/uWxf4iTzfRpnyDMCtq3fVh9NeCKgm6RaIphPFnUQ8MgXdKsYFqf52A3OENxbPCeKd/oq58WlYmh8RoU/oVVz6xCUYb/YYkCRkmflCrjENzD2oj2X4CKiDJmf+lv8jX0hjTQPW8R4/7oCAgiZgEu7yLohYbhGBgBTbDs3qdEUjBUM2TDMpqIxEXMHVKBPwT4QTE7VaVM2Y51iBCxY08tUYJ9k2RBLQt/N/IjT3t1+fMNe6IVhPmUJQZYhEvktQfaFqo1hyvjjn2DoJuc9B8LBPw+GD4b/N4a7mhiev5syRD85hkgZSC7EnpJjeDrLq3thyHSprRWFNhcdzPrxchwbY2i7zdOOYfLukSHYNJaPsWPIck+LrgMXUNmlGrB7ChPi3YuxqlpbaMDuKczEJ6ZE6iJyMgTsGDKFTs7l0YNqjU+HHUPmlPYUnFP5aeiwY/jlRAYZlL42MuwYovl7zsDGgEbqDwYrhqDtBuVFTaD2eVNhxZAlu5ytJFCACUdP/VE8xKxy1+tkwbM5LfIaG5YMmbJzsZcWRVn8kAQrhpGTCUsOSPkyzYqZfKbxF6MHQP61NxdqcrD5hK+7SIDRI1gnWhpVJmFuPiN+nKLImiGzqjzGTY3zaYohbJPXwyjxNBteADOidjctxuhNXs/iNyefkQxmNOma9shWdJO3Mz3lNWgKbaG5xM7vbTVjCE53v7cCRCZjHXaxRId/Nj4yZnB41KQXwPGUOkMhgSa0617gRbEzqUoBI0pngQYa2NLWgnwd34H9lb4+Y+2+tXsx6HF1YqQDQIP8I9eAY0ssb3+B6wS8RA5FQAZmk9yIEPW1y/GGdBZPPigRkNtDHvCMoeUZUKDi7BanNIBmpI54Jwz71TVhOuv/lBe9ItH8IigglljNHUCwSiBapzBybZatT5pf1RJgPRE348Oay8I1wLPmqkpyg6Q8YigRurX5sm5p/QRN8FxS2s6S0dlSQEgLfK8uAYynRtIMaX6CxQo977MMPIGgyp1hsGGdZryBp/oCPGSvAk94WJSXdQfIRSTOT0g6FflVENeODtX10Qu4W+KLVLyY5k5+E8+H9uidQcH3HtCstwJF6ns6eu9xCe7cpS0V+2YM+YesMFUYkGY80TKx431TnyHXwstqB+ENaasQF/zJrHPSY5ieUFfP9ampE5Q+RtIcYQLSO0vqunQzPRhSY6oiMxQO761vEzh3E0Y98jihMnxLzyur8/bblOKJmmZDZChsRrQ55MIewuZXYleiMRQCHXXfXyxM5TR9Q2IoHPNZ/1kTws5Ikr4hMIyFI+xDuLpYCCytCKv+cobjHX/gIYyLi0dbnU9eylDIJ3+uw5JBIRyEU6oXyhgKuqvS3ZUlSGeN0vhLCUPh7rUqdx6WQ+xa6pJKhiPhHp4QdIyIYXqawE6pHlQMBaW1rMfWViER7oBQTf4KhsI07z2GZgThyAHF5C9n2CbVrxXCufHypCIZw3ia1q7fjpGhny7jpVEwGcN0KbbzsuXHEcZ88pdqQhlDPgh7IV/73kidf8YMae7JOtGzYxg+QTjExpRhqFpUwIPhg6FX4ZzgwfDB0KtwTsAYSqN9988Qckt6EjCGP7mff5iLu/Ij2nSxQS560EMvZLs7TZG0Qsgd9adcfApC8rFlgZ4raAJPm2CtkQ/VWyAMV3cBshu5DRDmQcr8bMf9ZmCGjz7XVEGu8yHOZpXZA5GsIA83Lzm/lQhmEQQ5Y7CpwjLVvOvkO/kB3Gpj95R9wAzZbNgrL6kCy0QMckYEJfFlEdYcgVVUdSIiCTzRrTnvGIJbfbYHGXmCM6Mt0E4qXIpojW3dVGQgnB1JQ6BmaUNy6rg+Qotvi/hQnXVIBO2K9vowm5ZzUKFXxfY7O/CNCotJn4wWZOQ06xafAIjlaq4OoFr4TQizonYckDnpAp0JRbwYNSFfXga5bMqCMdReYuzvhiFzRGgvMXa3evRd8LXB7AQFfpWC9+329uD7Kb8XbTJ4RuK2bvEpsPLs30EntVtibOsWngYL33e4i4osjJcYIS8qsthsy9kU8XwvLXjFUZvjKkg3twKsp64nrRKAY+AOJsIs2Olx5bfEwPEFwWytoGJEveeYLZu2/kVyDZbYXhoJZDkY3o4k9QdI+i7xusDkeQcr3zzABV7SiKypKzzUwx1K86EvsD/ZpUZA1Ft1DTs/ByZwD6IEsIlGvhhOwC4IN4NGCX72kezEh5iniN3jKLyA79mboh11zB3kdW9mNgdvozOyzyfdxxVm9gwJwn1IvVxUd5J6/9f32kcvEG+InXb5IVHDV3HpcZ96FJA7Qfj5a7//yqagNu+b4G8rHiIl1nZHYoaARBlu69zzGOTAb3u+4n6niSxGHZzf559owBuGn808vff9vauYHOJWW7g74PS5+UPtlyLezI7d7nF2d06nBx6oGv8B3TyOQ3C8ebIAAAAASUVORK5CYII=;whiteSpace=wrap;html=1;rounded=0;glass=0;treeFolding=1;treeMoving=1;" vertex="1" parent="dNxyNK7c78bLwvsdeMH5-11">
            <mxGeometry x="770" y="180" width="180" height="70" as="geometry" />
          </mxCell>
        </UserObject>
        <mxCell id="RVc95KBzgzuvrnmMI-FG-32" value="" style="endArrow=classic;html=1;rounded=0;fontColor=#E6E6E6;entryX=0.5;entryY=0;entryDx=0;entryDy=0;" edge="1" parent="1">
          <mxGeometry width="50" height="50" relative="1" as="geometry">
            <mxPoint x="396" y="220" as="sourcePoint" />
            <mxPoint x="396" y="260" as="targetPoint" />
          </mxGeometry>
        </mxCell>
        <mxCell id="RVc95KBzgzuvrnmMI-FG-33" value="" style="endArrow=classic;html=1;rounded=0;fontColor=#E6E6E6;entryX=0.5;entryY=0;entryDx=0;entryDy=0;" edge="1" parent="1">
          <mxGeometry width="50" height="50" relative="1" as="geometry">
            <mxPoint x="534" y="220" as="sourcePoint" />
            <mxPoint x="639" y="260" as="targetPoint" />
            <Array as="points">
              <mxPoint x="639" y="220" />
            </Array>
          </mxGeometry>
        </mxCell>
        <mxCell id="RVc95KBzgzuvrnmMI-FG-34" value="" style="endArrow=classic;html=1;rounded=0;fontColor=#E6E6E6;entryX=0.5;entryY=0;entryDx=0;entryDy=0;" edge="1" parent="1">
          <mxGeometry width="50" height="50" relative="1" as="geometry">
            <mxPoint x="640" y="220" as="sourcePoint" />
            <mxPoint x="895" y="260" as="targetPoint" />
            <Array as="points">
              <mxPoint x="895" y="220" />
            </Array>
          </mxGeometry>
        </mxCell>
      </root>
    </mxGraphModel>
  </diagram>
</mxfile>
